<?xml version="1.0" standalone="no"?>
<!DOCTYPE svg PUBLIC "-//W3C//DTD SVG 20010904//EN"
 "http://www.w3.org/TR/2001/REC-SVG-20010904/DTD/svg10.dtd">
<svg version="1.0" xmlns="http://www.w3.org/2000/svg"
 width="381.000000pt" height="559.000000pt" viewBox="0 0 381.000000 559.000000"
 preserveAspectRatio="xMidYMid meet">

<g transform="translate(0.000000,559.000000) scale(0.100000,-0.100000)"
fill="#000000" stroke="none">
<path d="M0 2795 l0 -2795 1905 0 1905 0 0 2795 0 2795 -1905 0 -1905 0 0
-2795z m2301 2314 c17 -32 -7 -56 -96 -99 -203 -97 -335 -304 -335 -527 0
-104 3 -109 53 -74 92 63 262 116 344 108 62 -7 83 -20 83 -53 0 -31 -21 -40
-110 -47 -85 -7 -196 -42 -277 -88 -76 -43 -191 -161 -230 -234 -29 -55 -73
-197 -73 -235 0 -9 -28 -36 -62 -60 -139 -98 -217 -193 -244 -299 -23 -94 -2
-213 57 -313 l30 -51 -28 18 c-78 49 -127 126 -139 218 -4 26 -10 50 -14 52
-11 7 -106 -88 -178 -178 -161 -202 -293 -500 -359 -812 -25 -120 -27 -148
-28 -360 0 -218 2 -235 27 -333 35 -133 64 -203 123 -299 84 -135 272 -304
399 -357 36 -15 38 -15 31 2 -24 56 -16 112 15 112 33 0 106 -76 131 -135 l22
-53 62 -11 c141 -25 314 -3 408 52 194 114 228 327 77 478 -142 142 -421 206
-655 150 -101 -25 -141 -41 -241 -102 -45 -27 -85 -49 -88 -49 -15 0 55 89 97
122 144 119 373 165 591 120 100 -21 223 -72 283 -118 17 -13 34 -24 37 -24 3
0 6 29 6 65 0 152 -72 245 -262 338 -228 112 -445 162 -763 175 l-190 8 85 28
c187 62 505 42 755 -47 67 -24 177 -79 233 -116 59 -38 71 -34 72 24 0 17 14
72 30 124 l30 94 -25 33 c-41 53 -232 190 -340 244 -110 55 -297 118 -505 171
l-135 34 55 9 c73 12 287 -9 406 -39 179 -45 329 -133 478 -277 49 -49 91 -88
92 -88 1 0 9 19 19 42 25 64 145 177 230 217 95 45 271 87 467 111 324 39 379
55 496 137 107 76 168 167 193 289 11 56 10 69 -11 148 -13 48 -38 111 -57
142 l-35 55 -34 -26 c-140 -107 -355 -89 -493 40 -64 60 -95 114 -117 201
l-18 68 -13 -58 c-61 -268 -355 -422 -587 -307 -74 36 -166 124 -195 187 -66
140 -47 338 42 456 47 61 127 122 194 149 46 18 78 23 154 24 89 0 99 -2 163
-34 103 -53 199 -167 225 -271 20 -77 22 -78 45 -15 50 138 110 212 211 259
98 46 208 41 322 -16 55 -27 144 -117 177 -178 52 -95 52 -259 1 -361 l-26
-50 31 -44 c17 -25 48 -80 68 -123 36 -76 37 -79 37 -198 0 -119 0 -121 -37
-196 -53 -106 -154 -201 -280 -262 -125 -61 -214 -83 -398 -102 -86 -8 -178
-18 -205 -22 l-50 -7 -6 -50 c-4 -28 -10 -63 -14 -78 l-7 -28 38 17 c108 47
177 54 198 22 17 -28 -3 -47 -78 -74 -38 -13 -72 -26 -74 -29 -3 -3 16 -5 41
-5 106 0 184 -65 124 -104 -20 -13 -28 -13 -74 0 -29 8 -67 14 -85 12 -33 -3
-32 -3 25 -30 50 -24 57 -30 57 -55 0 -58 -32 -66 -106 -27 -75 40 -75 39 -58
87 17 49 10 91 -18 112 -20 13 -25 10 -87 -55 -58 -60 -72 -69 -112 -75 -62
-9 -119 8 -162 50 -20 19 -39 35 -43 35 -4 0 -4 -19 -2 -43 9 -77 130 -235
205 -266 25 -10 36 -9 79 10 67 29 158 36 207 16 40 -17 60 -51 46 -79 -8 -15
-21 -16 -97 -12 l-87 6 55 -31 c65 -37 100 -76 100 -111 0 -51 -54 -68 -87
-27 -22 27 -72 67 -84 67 -5 0 -9 -14 -9 -30 0 -37 -21 -90 -43 -109 -21 -17
-58 -8 -75 19 -11 17 -10 23 3 36 10 11 15 35 15 78 l0 63 -46 18 c-53 20
-153 109 -200 179 -37 55 -36 57 -58 -58 -23 -116 -21 -149 14 -197 19 -27 36
-69 47 -122 17 -75 20 -81 52 -94 163 -69 345 -268 366 -402 14 -88 9 -87 84
-11 106 109 191 136 249 82 77 -72 39 -218 -87 -334 -79 -74 -165 -118 -227
-118 -84 1 -111 38 -93 131 15 75 7 184 -20 269 -35 111 -115 196 -250 267
-49 26 -60 29 -65 16 -11 -29 -6 -54 25 -113 121 -232 -24 -488 -321 -567 -69
-18 -249 -24 -326 -10 l-41 7 -5 -38 c-8 -53 -53 -145 -102 -206 l-42 -51 111
0 c108 0 114 -1 181 -35 74 -38 93 -64 80 -116 -10 -38 -64 -87 -113 -102
-138 -41 -419 25 -472 112 -40 64 -28 95 62 159 74 53 157 140 180 190 10 19
17 54 17 77 0 37 -3 42 -32 52 -62 22 -183 88 -239 130 -208 158 -323 315
-398 546 -94 288 -85 668 24 1026 8 28 12 53 8 56 -5 4 -28 12 -53 19 -124 36
-269 137 -332 233 -62 93 -86 225 -54 301 26 64 121 127 191 127 19 0 35 5 35
11 0 7 -14 35 -31 63 -100 161 -115 353 -40 509 55 115 151 202 259 233 111
33 261 -21 371 -134 95 -97 138 -192 191 -419 12 -51 25 -93 28 -93 4 0 21 24
39 53 42 70 158 193 227 242 36 25 58 49 61 65 17 84 29 121 53 170 31 64 86
143 133 189 l33 33 -13 57 c-43 184 -11 334 109 512 115 169 347 299 391 218z
m1089 -57 c36 -18 48 -45 30 -72 -7 -11 -38 -17 -118 -21 -99 -6 -116 -10
-173 -40 -81 -43 -183 -139 -243 -228 -25 -38 -65 -116 -87 -173 -23 -57 -44
-106 -48 -110 -10 -11 -51 20 -51 38 0 24 41 135 85 229 48 103 143 227 213
278 138 101 305 143 392 99z m-230 -637 c150 -17 337 -157 300 -225 -15 -28
-24 -26 -87 26 -92 75 -146 96 -298 118 -79 11 -80 11 -80 41 0 35 34 57 80
50 17 -2 55 -7 85 -10z m-570 -1189 c49 -13 61 -13 110 1 71 21 202 13 290
-18 118 -40 225 -125 218 -173 -5 -36 -42 -31 -100 12 -63 47 -150 85 -234
103 -54 11 -69 10 -143 -9 l-82 -21 -96 20 c-89 19 -100 19 -181 5 -157 -28
-271 -75 -362 -151 -55 -46 -93 -46 -98 0 -7 77 204 202 396 235 79 13 224 11
282 -4z m26 -277 c65 -12 107 -34 101 -52 -3 -9 -51 -12 -173 -12 -137 0 -175
-3 -199 -16 -49 -27 -75 -32 -75 -16 0 7 10 23 23 34 67 62 192 86 323 62z"/>
<path d="M2158 4182 c-106 -38 -193 -133 -219 -237 -17 -66 -6 -191 20 -244
34 -65 87 -117 153 -151 52 -26 72 -30 139 -30 107 0 178 28 245 96 136 138
134 358 -5 493 -88 85 -220 114 -333 73z m253 -275 c41 -27 59 -60 59 -107 0
-47 -18 -80 -59 -107 -85 -58 -187 8 -185 118 2 47 18 76 57 99 42 26 86 25
128 -3z"/>
<path d="M2952 4152 c-30 -11 -71 -36 -94 -58 -129 -125 -136 -323 -17 -459
128 -145 369 -132 473 27 46 71 61 148 46 235 -6 37 -18 79 -26 96 -24 45 -93
115 -142 144 -60 35 -164 42 -240 15z m78 -227 c101 -52 61 -225 -52 -225 -33
0 -87 36 -98 66 -43 113 49 211 150 159z"/>
<path d="M645 4108 c-85 -44 -141 -115 -174 -222 -35 -114 -23 -213 40 -339
44 -87 82 -140 161 -222 69 -73 206 -185 226 -185 6 0 18 13 27 29 20 40 119
162 199 245 75 79 76 82 47 208 -77 328 -230 509 -429 508 -37 -1 -71 -8 -97
-22z"/>
<path d="M435 3313 c-69 -19 -111 -88 -101 -166 13 -97 73 -184 174 -251 63
-41 187 -96 218 -96 8 0 22 19 31 43 10 23 37 82 60 131 24 49 42 90 41 91 -2
2 -32 24 -67 50 -35 26 -98 81 -140 123 l-76 76 -60 2 c-33 2 -69 0 -80 -3z"/>
<path d="M2400 2626 c-92 -30 -163 -74 -214 -134 -19 -22 -19 -23 10 -53 32
-34 74 -59 99 -59 24 0 99 74 127 127 24 45 53 131 46 138 -2 1 -32 -7 -68
-19z"/>
<path d="M2722 1272 c-27 -20 -68 -59 -91 -87 -48 -58 -117 -188 -102 -193 18
-6 115 52 158 95 68 67 125 198 94 217 -5 3 -31 -11 -59 -32z"/>
<path d="M1228 543 c-27 -2 -48 -8 -48 -12 0 -28 162 -81 244 -81 49 0 105 14
131 34 18 13 18 14 -3 25 -23 12 -212 42 -252 39 -14 -1 -46 -3 -72 -5z"/>
</g>
</svg>
